<svg width="22" height="22" viewBox="0 0 22 22" fill="none" xmlns="http://www.w3.org/2000/svg">
<path d="M11.0003 3.66699C11.9728 3.66699 12.9054 4.0533 13.5931 4.74093C14.2807 5.42857 14.667 6.3612 14.667 7.33366C14.667 8.30612 14.2807 9.23875 13.5931 9.92638C12.9054 10.614 11.9728 11.0003 11.0003 11.0003C10.0279 11.0003 9.09523 10.614 8.4076 9.92638C7.71997 9.23875 7.33366 8.30612 7.33366 7.33366C7.33366 6.3612 7.71997 5.42857 8.4076 4.74093C9.09523 4.0533 10.0279 3.66699 11.0003 3.66699ZM11.0003 12.8337C15.052 12.8337 18.3337 14.4745 18.3337 16.5003V18.3337H3.66699V16.5003C3.66699 14.4745 6.94866 12.8337 11.0003 12.8337Z"/>
</svg>
