<svg width="14" height="14" viewBox="0 0 14 14" fill="none" xmlns="http://www.w3.org/2000/svg">
<path d="M4.63119 12.568C4.46715 12.4039 4.375 12.1814 4.375 11.9494C4.375 11.7174 4.46715 11.4949 4.63119 11.3308L8.96244 6.99953L4.63119 2.66828C4.4718 2.50325 4.3836 2.28223 4.3856 2.0528C4.38759 1.82338 4.47961 1.60392 4.64185 1.44169C4.80408 1.27946 5.02354 1.18744 5.25296 1.18544C5.48238 1.18345 5.70341 1.27164 5.86844 1.43103L10.8183 6.38091C10.9824 6.54499 11.0745 6.76751 11.0745 6.99953C11.0745 7.23155 10.9824 7.45407 10.8183 7.61816L5.86844 12.568C5.70435 12.7321 5.48183 12.8242 5.24981 12.8242C5.01779 12.8242 4.79528 12.7321 4.63119 12.568Z"/>
</svg>
