<svg width="24" height="20" viewBox="0 0 24 20" fill="none" xmlns="http://www.w3.org/2000/svg">
<path d="M4.62526 10.0002L1.04818 4.43975C0.434287 3.4953 0.39887 2.53339 0.941926 1.554C1.48498 0.574607 2.32318 0.0844405 3.45651 0.0834961H15.2503C15.7225 0.0834961 16.1654 0.189746 16.5791 0.402246C16.9928 0.614746 17.329 0.909885 17.5878 1.28766L22.5815 8.371C22.9357 8.86683 23.1128 9.40989 23.1128 10.0002C23.1128 10.5904 22.9357 11.1335 22.5815 11.6293L17.5878 18.7127C17.328 19.0904 16.9918 19.3856 16.5791 19.5981C16.1664 19.8106 15.7234 19.9168 15.2503 19.9168H3.45651C2.32318 19.9168 1.48498 19.4271 0.941926 18.4477C0.39887 17.4684 0.434287 16.506 1.04818 15.5606L4.62526 10.0002ZM8.02526 10.0002L3.42109 17.0835H15.2503L20.2794 10.0002L15.2503 2.91683H3.42109L8.02526 10.0002Z"/>
</svg>
