<svg width="24" height="18" viewBox="0 0 24 18" fill="none" xmlns="http://www.w3.org/2000/svg">
<path d="M9.31122 1.16998C7.50488 0.393852 4.98009 0.0136625 1.59987 0.000164637C1.28108 -0.00373305 0.968546 0.0799229 0.703944 0.239977C0.486756 0.372089 0.308969 0.550206 0.186222 0.758661C0.0634737 0.967117 -0.000474141 1.19952 2.64671e-06 1.43544V14.3079C2.64671e-06 15.1781 0.687945 15.8345 1.59987 15.8345C5.15307 15.8345 8.71727 16.1333 10.8521 17.9492C10.8813 17.9741 10.918 17.9908 10.9577 17.9972C10.9973 18.0035 11.0382 17.9992 11.0751 17.9848C11.1121 17.9704 11.1435 17.9466 11.1656 17.9163C11.1876 17.8859 11.1993 17.8504 11.1991 17.8142V2.64665C11.1992 2.54431 11.1748 2.44315 11.1277 2.35001C11.0806 2.25686 11.0119 2.1739 10.9261 2.10673C10.4371 1.73052 9.89389 1.41542 9.31122 1.16998ZM23.2941 0.238627C23.0293 0.0789714 22.7168 -0.00421747 22.3981 0.000164637C19.0179 0.0136625 16.4931 0.392053 14.6868 1.16998C14.1041 1.41498 13.5608 1.72945 13.0714 2.10493C12.9858 2.17222 12.9172 2.25521 12.8702 2.34834C12.8232 2.44147 12.7989 2.54257 12.7989 2.64485V17.8133C12.7989 17.8481 12.8103 17.8822 12.8317 17.9112C12.8531 17.9402 12.8836 17.9629 12.9192 17.9764C12.9549 17.9899 12.9942 17.9936 13.0322 17.9871C13.0702 17.9806 13.1053 17.9641 13.1329 17.9397C14.4163 16.7924 16.6686 15.8332 22.4001 15.8336C22.8244 15.8336 23.2314 15.6819 23.5314 15.4119C23.8314 15.1419 24 14.7757 24 14.3938V1.43589C24.0006 1.19951 23.9365 0.966632 23.8134 0.757825C23.6902 0.549019 23.5119 0.370705 23.2941 0.238627Z"/>
</svg>
