<svg width="33" height="34" viewBox="0 0 33 34" fill="none" xmlns="http://www.w3.org/2000/svg">
<path d="M16.5 16.3622C13.9975 13.9538 10.835 12.268 7.315 11.6163C5.65125 11.3188 4.125 12.6788 4.125 14.4213V23.2613C4.125 25.6413 5.115 26.888 6.47625 27.0722C9.91375 27.5255 13.035 28.9847 15.5925 31.138C16.0738 31.5488 16.8575 31.5913 17.3387 31.1947C19.91 29.0272 23.0588 27.5397 26.5238 27.0863C27.8163 26.9022 28.875 25.5847 28.875 24.2247V14.4213C28.875 12.6788 27.3488 11.3188 25.685 11.6163C22.165 12.268 19.0025 13.9538 16.5 16.3622ZM16.5 11.333C18.7825 11.333 20.625 9.43467 20.625 7.08301C20.625 4.73134 18.7825 2.83301 16.5 2.83301C14.2175 2.83301 12.375 4.73134 12.375 7.08301C12.375 9.43467 14.2175 11.333 16.5 11.333Z"/>
</svg>
