<?xml version="1.0" encoding="UTF-8"?>
<svg id="OBJECT" xmlns="http://www.w3.org/2000/svg" viewBox="0 0 32 32">
  <defs>
    <style>
      .cls-1 {
        stroke-width: 0px;
      }
    </style>
  </defs>
  <path class="cls-1" d="m11.96,9.21l.89,1.79h7.15V3c0-1.1-.9-2-2-2h-9.13c-.83,0-1.63.34-2.19.95l-1.87,2c-.52.56-.81,1.29-.81,2.05v1h4.38c1.53,0,2.9.85,3.58,2.21Zm5.72-.41h-3.68c-.55,0-1-.45-1-1s.45-1,1-1h3.68c.55,0,1,.45,1,1s-.45,1-1,1Zm-6.14-5.6h6.14c.55,0,1,.45,1,1s-.45,1-1,1h-6.14c-.55,0-1-.45-1-1s.45-1,1-1Zm-3.93,2c-.55,0-1-.45-1-1s.45-1,1-1h.5c.55,0,1,.45,1,1s-.45,1-1,1h-.5Z"/>
  <path class="cls-1" d="m28,5h-6v6c2.21,0,4,1.79,4,4v13.5c0,1.38,1.12,2.5,2.5,2.5s2.5-1.12,2.5-2.5V8c0-1.66-1.34-3-3-3Z"/>
  <path class="cls-1" d="m24,27.75H1v.25c0,1.66,1.34,3,3,3h20.76c-.48-.72-.76-1.58-.76-2.5v-.75Z"/>
  <rect class="cls-1" x="10.07" y="17.64" width="9.43" height="3.71"/>
  <rect class="cls-1" x="5.5" y="17.64" width="2.57" height="3.71"/>
  <path class="cls-1" d="m24,15c0-1.1-.9-2-2-2H6.16c-.55,0-1-.45-1-1s.45-1,1-1h4.46l-.45-.89c-.34-.68-1.03-1.11-1.79-1.11H3c-1.1,0-2,.9-2,2v14.75h23v-10.75Zm-2.5,7.36c0,.55-.45,1-1,1H4.5c-.55,0-1-.45-1-1v-5.71c0-.55.45-1,1-1h16c.55,0,1,.45,1,1v5.71Z"/>
</svg>