<?xml version="1.0" encoding="UTF-8"?>
<svg id="OBJECT" xmlns="http://www.w3.org/2000/svg" viewBox="0 0 32 32">
  <defs>
    <style>
      .cls-1 {
        stroke-width: 0px;
      }
    </style>
  </defs>
  <path class="cls-1" d="m6.49,6.61l1.85,1.11c.33-.41.76-.74,1.27-.93,2.69-1.01,5.51-1.52,8.39-1.52s5.7.51,8.39,1.52c.51.19.94.52,1.27.93l1.85-1.11c.33-.2.52-.58.48-.96-.04-.39-.3-.72-.67-.84l-11-3.75c-.21-.07-.44-.07-.65,0l-11,3.75c-.37.13-.63.45-.67.84-.04.39.15.76.48.96Z"/>
  <path class="cls-1" d="m10.32,8.65c-.39.15-.65.52-.65.94v1.96c0,.34.17.65.45.84.28.18.64.21.95.08,3.41-1.5,6.3.14,6.42.21.16.09.33.14.51.14.19,0,.37-.05.54-.16.03-.02,3.19-1.99,6.31-.24.31.17.69.17.99,0,.31-.18.49-.51.49-.86v-1.96c0-.42-.26-.79-.65-.94-4.96-1.86-10.41-1.86-15.37,0Z"/>
  <rect class="cls-1" x="4.62" y="18.08" width="4.76" height="13.85" rx="1.4" ry="1.4" transform="translate(-15.62 12.26) rotate(-44.98)"/>
  <path class="cls-1" d="m30.74,16.15c-1.23-1.33-3.33-1.35-4.57-.03l-3.94,4.19c-.78.82-1.3,1.05-1.85,1.05h-5.44c-.55,0-1-.45-1-1s.45-1,1-1h4.36v-1.37c0-1.1-.9-2-2-2h-2.75c-1.63-1.5-3.99-1.85-6.02-.92-.79.37-1.5.95-2.09,1.74l-.66.88c.13.1.26.19.38.31l8.14,8.14,6.8-.03c1.07,0,2.09-.45,2.82-1.24l6.83-7.37c.35-.38.36-.97,0-1.36Z"/>
</svg>