<?xml version="1.0" encoding="UTF-8"?>
<svg id="OBJECT" xmlns="http://www.w3.org/2000/svg" viewBox="0 0 32 32">
  <defs>
    <style>
      .cls-1 {
        stroke-width: 0px;
      }
    </style>
  </defs>
  <path class="cls-1" d="m23.5,6h4.41c-.11-.43-.33-.83-.64-1.15l-3.12-3.12c-.32-.32-.72-.53-1.15-.64v4.41c0,.28.22.5.5.5Z"/>
  <path class="cls-1" d="m6.72,24.01V5.49h-.22c-1.38,0-2.5,1.12-2.5,2.5v20.51c0,1.38,1.12,2.5,2.5,2.5h15.28c1.38,0,2.49-1.12,2.5-2.49h-13.06c-2.48,0-4.5-2.02-4.5-4.5Z"/>
  <path class="cls-1" d="m23.5,8c-1.38,0-2.5-1.12-2.5-2.5V1h-9.78c-1.38,0-2.5,1.12-2.5,2.5v20.51c0,1.38,1.12,2.5,2.5,2.5h14.28c1.38,0,2.5-1.12,2.5-2.5V8h-4.5Zm-11.19-4h5.36c.55,0,1,.45,1,1s-.45,1-1,1h-5.36c-.55,0-1-.45-1-1s.45-1,1-1Zm-.15,5.46h.52c.55,0,1,.45,1,1s-.45,1-1,1h-.52c-.55,0-1-.45-1-1s.45-1,1-1Zm-1,4.12c0-.55.45-1,1-1h.52c.55,0,1,.45,1,1s-.45,1-1,1h-.52c-.55,0-1-.45-1-1Zm5.51,9.69c0,.55-.45,1-1,1s-1-.45-1-1v-1.52h-1.29v1.52c0,.55-.45,1-1,1s-1-.45-1-1v-4.82c0-1.33,1.08-2.41,2.41-2.41h.46c1.33,0,2.41,1.08,2.41,2.41v4.82Zm7.66-2.12h-1.08v1.08c0,.55-.45,1-1,1s-1-.45-1-1v-1.08h-1.08c-.55,0-1-.45-1-1s.45-1,1-1h1.08v-1.08c0-.55.45-1,1-1s1,.45,1,1v1.08h1.08c.55,0,1,.45,1,1s-.45,1-1,1Zm.22-6.58h-8.58c-.55,0-1-.45-1-1s.45-1,1-1h8.58c.55,0,1,.45,1,1s-.45,1-1,1Zm0-3.12h-8.58c-.55,0-1-.45-1-1s.45-1,1-1h8.58c.55,0,1,.45,1,1s-.45,1-1,1Z"/>
  <path class="cls-1" d="m14.26,18.04h-.46c-.23,0-.41.18-.41.41v1.3h1.29v-1.3c0-.23-.18-.41-.41-.41Z"/>
</svg>