<svg width="33" height="34" viewBox="0 0 33 34" fill="none" xmlns="http://www.w3.org/2000/svg">
<path d="M18.6708 2.95011C18.0648 2.41935 17.2954 2.12793 16.5 2.12793C15.7046 2.12793 14.9352 2.41935 14.3292 2.95011L4.27453 11.755C3.90444 12.0792 3.60716 12.4824 3.40327 12.9366C3.19939 13.3909 3.09378 13.8853 3.09375 14.3858V28.1558C3.09375 28.8603 3.36537 29.5359 3.84887 30.0341C4.33236 30.5322 4.98811 30.812 5.67188 30.812H10.8281C11.5119 30.812 12.1676 30.5322 12.6511 30.0341C13.1346 29.5359 13.4062 28.8603 13.4062 28.1558V20.7183C13.4062 20.5774 13.4606 20.4423 13.5573 20.3426C13.654 20.243 13.7851 20.187 13.9219 20.187H18.5625C18.6993 20.187 18.8304 20.243 18.9271 20.3426C19.0238 20.4423 19.0781 20.5774 19.0781 20.7183V28.1558C19.0781 28.8603 19.3497 29.5359 19.8332 30.0341C20.3167 30.5322 20.9725 30.812 21.6562 30.812H27.3281C28.0119 30.812 28.6676 30.5322 29.1511 30.0341C29.6346 29.5359 29.9062 28.8603 29.9062 28.1558V14.3858C29.9062 13.8853 29.8006 13.3909 29.5967 12.9366C29.3928 12.4824 29.0956 12.0792 28.7255 11.755L18.6708 2.95011Z"/>
</svg>
