<svg width="20" height="20" viewBox="0 0 20 20" fill="none" xmlns="http://www.w3.org/2000/svg">
<path d="M18.1543 17.168C18.2454 17.3177 18.3138 17.4707 18.3594 17.627C18.4049 17.7832 18.4277 17.9492 18.4277 18.125C18.4277 18.3854 18.3789 18.6296 18.2812 18.8574C18.1836 19.0853 18.0501 19.2839 17.8809 19.4531C17.7116 19.6224 17.513 19.7559 17.2852 19.8535C17.0573 19.9512 16.8132 20 16.5527 20H3.45703C3.19661 20 2.95247 19.9512 2.72461 19.8535C2.49674 19.7559 2.29818 19.6224 2.12891 19.4531C1.95964 19.2839 1.82617 19.0853 1.72852 18.8574C1.63086 18.6296 1.58203 18.3854 1.58203 18.125C1.58203 17.9492 1.60156 17.7832 1.64062 17.627C1.67969 17.4707 1.74805 17.3177 1.8457 17.168L7.40234 7.48047C7.46745 7.38932 7.5 7.27865 7.5 7.14844V1.25H6.25V0H13.75V1.25H12.5V7.14844C12.5 7.27214 12.5326 7.38607 12.5977 7.49023L18.1543 17.168ZM8.75 7.14844C8.75 7.49349 8.66211 7.81576 8.48633 8.11523L5.25391 13.75H14.7461L11.5137 8.11523C11.3379 7.81576 11.25 7.49349 11.25 7.14844V1.25H8.75V7.14844Z"/>
</svg>
