<svg width="17" height="15" viewBox="0 0 17 15" fill="none" xmlns="http://www.w3.org/2000/svg">
<path d="M6.59545 0.974983C5.31595 0.32821 3.52756 0.0113854 1.13324 0.000137197C0.907432 -0.00311088 0.686053 0.0666024 0.498627 0.199981C0.344786 0.310074 0.218853 0.458505 0.131907 0.632218C0.0449606 0.80593 -0.00033585 0.999602 1.87475e-06 1.1962V11.9233C1.87475e-06 12.6484 0.487294 13.1954 1.13324 13.1954C3.65009 13.1954 6.17474 13.4444 7.6869 14.9576C7.70759 14.9784 7.73359 14.9923 7.76167 14.9976C7.78976 15.0029 7.81869 14.9993 7.84488 14.9874C7.87106 14.9754 7.89334 14.9555 7.90895 14.9302C7.92456 14.9049 7.93281 14.8754 7.93267 14.8452V2.20554C7.93273 2.12026 7.9155 2.03596 7.88215 1.95834C7.84879 1.88072 7.80008 1.81159 7.73931 1.75561C7.39294 1.4421 7.00817 1.17952 6.59545 0.974983ZM16.5 0.198856C16.3124 0.0658095 16.091 -0.00351456 15.8653 0.000137197C13.471 0.0113854 11.6826 0.326711 10.4031 0.974983C9.99043 1.17915 9.60557 1.44121 9.25892 1.75411C9.19829 1.81018 9.14969 1.87935 9.1164 1.95695C9.08311 2.03456 9.0659 2.11881 9.06591 2.20404V14.8444C9.06589 14.8734 9.07397 14.9018 9.08913 14.926C9.10429 14.9502 9.12586 14.9691 9.15112 14.9803C9.17639 14.9916 9.20423 14.9947 9.23116 14.9893C9.25808 14.9838 9.28289 14.9701 9.30247 14.9498C10.2115 13.9937 11.8069 13.1943 15.8668 13.1947C16.1673 13.1947 16.4556 13.0683 16.6681 12.8433C16.8806 12.6183 17 12.3131 17 11.9949V1.19657C17.0004 0.999589 16.955 0.805526 16.8678 0.631521C16.7806 0.457516 16.6543 0.308921 16.5 0.198856Z"/>
</svg>
