<svg width="18" height="18" viewBox="0 0 18 18" fill="none" xmlns="http://www.w3.org/2000/svg">
<path d="M6.30002 7.1998C7.0161 7.1998 7.70286 6.91534 8.2092 6.40899C8.71555 5.90264 9.00002 5.21589 9.00002 4.4998C9.00002 3.78372 8.71555 3.09696 8.2092 2.59062C7.70286 2.08427 7.0161 1.7998 6.30002 1.7998C5.58393 1.7998 4.89717 2.08427 4.39083 2.59062C3.88448 3.09696 3.60001 3.78372 3.60001 4.4998C3.60001 5.21589 3.88448 5.90264 4.39083 6.40899C4.89717 6.91534 5.58393 7.1998 6.30002 7.1998ZM13.05 8.0998C13.6468 8.0998 14.219 7.86275 14.641 7.44079C15.063 7.01884 15.3 6.44654 15.3 5.8498C15.3 5.25307 15.063 4.68077 14.641 4.25881C14.219 3.83686 13.6468 3.5998 13.05 3.5998C12.4533 3.5998 11.881 3.83686 11.459 4.25881C11.0371 4.68077 10.8 5.25307 10.8 5.8498C10.8 6.44654 11.0371 7.01884 11.459 7.44079C11.881 7.86275 12.4533 8.0998 13.05 8.0998ZM1.45351 14.785C1.27706 14.675 1.13533 14.5174 1.0447 14.3302C0.954084 14.1431 0.918274 13.9341 0.941415 13.7275C1.10733 12.4235 1.74309 11.2247 2.72955 10.3558C3.716 9.48687 4.98545 9.0075 6.30002 9.0075C7.61458 9.0075 8.88403 9.48687 9.87048 10.3558C10.8569 11.2247 11.4927 12.4235 11.6586 13.7275C11.7108 14.1478 11.5038 14.5555 11.1456 14.7841C9.69954 15.7108 8.01754 16.2022 6.30002 16.1998C4.58228 16.2026 2.89995 15.7115 1.45351 14.785ZM13.05 14.3998H12.9546C13.0176 14.1325 13.0338 13.8499 12.9978 13.5601C12.844 12.3229 12.3492 11.1528 11.5686 10.1806C12.0709 9.98295 12.6077 9.88766 13.1473 9.90033C13.687 9.91299 14.2186 10.0334 14.7111 10.2544C15.2036 10.4754 15.647 10.7926 16.0152 11.1873C16.3834 11.582 16.669 12.0464 16.8552 12.553C16.9124 12.7147 16.9114 12.8914 16.8522 13.0524C16.7931 13.2135 16.6795 13.3488 16.5312 13.435C15.4807 14.0684 14.2767 14.402 13.05 14.3998Z"/>
</svg>
