<svg width="33" height="34" viewBox="0 0 33 34" fill="none" xmlns="http://www.w3.org/2000/svg">
<path d="M26.125 5.66634H24.75V4.24967C24.75 3.39967 24.2 2.83301 23.375 2.83301C22.55 2.83301 22 3.39967 22 4.24967V5.66634H11V4.24967C11 3.39967 10.45 2.83301 9.625 2.83301C8.8 2.83301 8.25 3.39967 8.25 4.24967V5.66634H6.875C4.5375 5.66634 2.75 7.50801 2.75 9.91634V11.333H30.25V9.91634C30.25 7.50801 28.4625 5.66634 26.125 5.66634ZM2.75 26.9163C2.75 29.3247 4.5375 31.1663 6.875 31.1663H26.125C28.4625 31.1663 30.25 29.3247 30.25 26.9163V14.1663H2.75V26.9163ZM23.375 16.9997C24.2 16.9997 24.75 17.5663 24.75 18.4163C24.75 19.2663 24.2 19.833 23.375 19.833C22.55 19.833 22 19.2663 22 18.4163C22 17.5663 22.55 16.9997 23.375 16.9997ZM23.375 22.6663C24.2 22.6663 24.75 23.233 24.75 24.083C24.75 24.933 24.2 25.4997 23.375 25.4997C22.55 25.4997 22 24.933 22 24.083C22 23.233 22.55 22.6663 23.375 22.6663ZM16.5 16.9997C17.325 16.9997 17.875 17.5663 17.875 18.4163C17.875 19.2663 17.325 19.833 16.5 19.833C15.675 19.833 15.125 19.2663 15.125 18.4163C15.125 17.5663 15.675 16.9997 16.5 16.9997ZM16.5 22.6663C17.325 22.6663 17.875 23.233 17.875 24.083C17.875 24.933 17.325 25.4997 16.5 25.4997C15.675 25.4997 15.125 24.933 15.125 24.083C15.125 23.233 15.675 22.6663 16.5 22.6663ZM9.625 16.9997C10.45 16.9997 11 17.5663 11 18.4163C11 19.2663 10.45 19.833 9.625 19.833C8.8 19.833 8.25 19.2663 8.25 18.4163C8.25 17.5663 8.8 16.9997 9.625 16.9997ZM9.625 22.6663C10.45 22.6663 11 23.233 11 24.083C11 24.933 10.45 25.4997 9.625 25.4997C8.8 25.4997 8.25 24.933 8.25 24.083C8.25 23.233 8.8 22.6663 9.625 22.6663Z"/>
</svg>
