<svg width="27" height="28" viewBox="0 0 27 28" fill="none" xmlns="http://www.w3.org/2000/svg">
<path d="M16.0328 28H10.968C10.6507 28.0001 10.3428 27.891 10.0956 27.6908C9.84833 27.4907 9.67649 27.2115 9.60858 26.8996L9.04227 24.262C8.2868 23.9289 7.57046 23.5125 6.90642 23.0202L4.35035 23.8392C4.0478 23.9363 3.72135 23.9263 3.42521 23.8109C3.12907 23.6956 2.88107 23.4818 2.72237 23.205L0.184395 18.7936C0.0273645 18.5166 -0.0315806 18.1942 0.0172029 17.8791C0.0659864 17.5639 0.21961 17.2748 0.452941 17.059L2.43574 15.239C2.34557 14.4146 2.34557 13.5826 2.43574 12.7582L0.452941 10.9424C0.21928 10.7265 0.065447 10.4371 0.0166555 10.1217C-0.032136 9.80629 0.0270083 9.48356 0.184395 9.2064L2.71681 4.7922C2.8755 4.51544 3.12351 4.30163 3.41965 4.18626C3.71579 4.0709 4.04224 4.06093 4.34478 4.158L6.90085 4.977C7.24036 4.725 7.59379 4.4898 7.95834 4.277C8.31037 4.0782 8.67215 3.8976 9.04227 3.7366L9.60997 1.1018C9.67756 0.789877 9.84907 0.510563 10.0961 0.310168C10.3431 0.109774 10.6507 0.000335952 10.968 0H16.0328C16.3501 0.000335952 16.6578 0.109774 16.9048 0.310168C17.1518 0.510563 17.3233 0.789877 17.3909 1.1018L17.9641 3.738C18.7187 4.07297 19.4348 4.48935 20.1 4.9798L22.6575 4.1608C22.9598 4.06408 23.286 4.07424 23.5818 4.18959C23.8776 4.30493 24.1254 4.51854 24.284 4.795L26.8165 9.2092C27.1393 9.779 27.028 10.5 26.5479 10.9438L24.5651 12.7638C24.6553 13.5882 24.6553 14.4202 24.5651 15.2446L26.5479 17.0646C27.028 17.5098 27.1393 18.2294 26.8165 18.7992L24.284 23.2134C24.1254 23.4902 23.8773 23.704 23.5812 23.8193C23.2851 23.9347 22.9586 23.9447 22.6561 23.8476L20.1 23.0286C19.4365 23.5205 18.7206 23.9365 17.9655 24.269L17.3909 26.8996C17.323 27.2113 17.1514 27.4903 16.9044 27.6904C16.6574 27.8905 16.3499 27.9997 16.0328 28ZM13.4949 8.4C12.0187 8.4 10.6031 8.99 9.55929 10.0402C8.51551 11.0904 7.92912 12.5148 7.92912 14C7.92912 15.4852 8.51551 16.9096 9.55929 17.9598C10.6031 19.01 12.0187 19.6 13.4949 19.6C14.971 19.6 16.3867 19.01 17.4304 17.9598C18.4742 16.9096 19.0606 15.4852 19.0606 14C19.0606 12.5148 18.4742 11.0904 17.4304 10.0402C16.3867 8.99 14.971 8.4 13.4949 8.4Z"/>
</svg>
