<svg width="28" height="28" viewBox="0 0 28 28" fill="none" xmlns="http://www.w3.org/2000/svg">
<g clip-path="url(#clip0_978_954)">
<path d="M13.9997 2.3335C20.4432 2.3335 25.6663 7.55666 25.6663 14.0002C25.6663 20.4437 20.4432 25.6668 13.9997 25.6668C7.55618 25.6668 2.33301 20.4437 2.33301 14.0002C2.33301 7.55666 7.55618 2.3335 13.9997 2.3335ZM13.9997 7.00016C13.6903 7.00016 13.3935 7.12308 13.1747 7.34187C12.9559 7.56066 12.833 7.85741 12.833 8.16683V14.0002C12.8331 14.3096 12.956 14.6063 13.1748 14.825L16.6748 18.325C16.8949 18.5375 17.1896 18.6551 17.4955 18.6525C17.8014 18.6498 18.094 18.5271 18.3103 18.3108C18.5266 18.0945 18.6493 17.8019 18.652 17.496C18.6546 17.1901 18.537 16.8954 18.3245 16.6753L15.1663 13.5172V8.16683C15.1663 7.85741 15.0434 7.56066 14.8246 7.34187C14.6058 7.12308 14.3091 7.00016 13.9997 7.00016Z"/>
</g>
<defs>
<clipPath id="clip0_978_954">
<rect width="28" height="28"/>
</clipPath>
</defs>
</svg>
